<svg width="349" height="243" viewBox="0 0 349 243" fill="none" xmlns="http://www.w3.org/2000/svg">
<ellipse cx="174.5" cy="228.5" rx="174.5" ry="14.5" fill="#000C7D"/>
<path d="M288.386 203.787H249.205C245.511 203.787 242.516 206.782 242.516 210.476V219.987L247.038 221.304V209.813H269.979V221.135H273.473V209.813H291.305V221.869H294.883V210.285C294.883 206.698 291.973 203.787 288.386 203.787Z" fill="white" stroke="#263238" stroke-width="0.445034" stroke-miterlimit="10"/>
<path d="M294.977 228.464C297.422 228.464 299.405 226.482 299.405 224.036C299.405 221.591 297.422 219.608 294.977 219.608C292.531 219.608 290.549 221.591 290.549 224.036C290.549 226.482 292.531 228.464 294.977 228.464Z" fill="white" stroke="#263238" stroke-width="0.445034" stroke-miterlimit="10"/>
<path d="M243.745 227.708C246.19 227.708 248.173 225.725 248.173 223.28C248.173 220.834 246.19 218.852 243.745 218.852C241.299 218.852 239.317 220.834 239.317 223.28C239.317 225.725 241.299 227.708 243.745 227.708Z" fill="white" stroke="#263238" stroke-width="0.445034" stroke-miterlimit="10"/>
<path d="M271.706 227.334C274.152 227.334 276.134 225.352 276.134 222.906C276.134 220.46 274.152 218.478 271.706 218.478C269.261 218.478 267.278 220.46 267.278 222.906C267.278 225.352 269.261 227.334 271.706 227.334Z" fill="white" stroke="#263238" stroke-width="0.445034" stroke-miterlimit="10"/>
<path d="M312.133 61.0115H295.422V120.121H312.133V61.0115Z" fill="#263238" stroke="#263238" stroke-width="0.445034" stroke-linecap="round" stroke-linejoin="round"/>
<path d="M281.203 164.767H257.759V184.971H281.203V164.767Z" fill="white" stroke="#263238" stroke-width="0.445034" stroke-miterlimit="10"/>
<path d="M236.571 78.7061C236.571 78.7061 232.392 108.105 226.958 117.718L254.684 107.825L247.02 75.9202L236.571 78.7061Z" fill="white" stroke="#263238" stroke-width="0.445034" stroke-linecap="round" stroke-linejoin="round"/>
<path d="M248.992 106.018C248.992 106.018 219.797 117.762 206.972 129.658C204.101 132.324 202.37 135.991 202.134 139.898C201.8 145.439 201.912 155.523 204.47 171.665L211.951 213.898L238.987 210.458C238.987 210.458 238.556 211.402 240.055 216.724L271.15 208.745L261.008 155.372L293.264 147.059C293.264 147.059 300.58 140.076 296.423 112.974C296.423 112.974 295.093 103.993 294.928 103.494C294.763 102.996 282.231 101.897 282.231 101.897L269.655 96.0134L248.996 106.022L248.992 106.018Z" fill="#4DB4D7" stroke="#263238" stroke-width="0.445034" stroke-linecap="round" stroke-linejoin="round"/>
<path d="M255.516 114.3L232.063 133.597C228.565 136.471 226.86 140.989 227.581 145.461L238.983 210.458" stroke="#263238" stroke-width="0.445034" stroke-linecap="round" stroke-linejoin="round"/>
<path d="M260.767 137.028L251.293 144.665C248.84 146.641 247.55 149.711 247.848 152.844C248.903 163.859 252.2 190.677 260.638 211.264" stroke="white" stroke-width="0.445034" stroke-linecap="round" stroke-linejoin="round"/>
<path d="M246.255 85.751L248.992 106.018C248.992 106.018 268.965 109.658 282.227 101.892L281.096 78.9286L271.96 68.902L253.522 69.4672L246.255 85.7465V85.751Z" fill="white" stroke="#263238" stroke-width="0.445034" stroke-linecap="round" stroke-linejoin="round"/>
<path d="M205.743 84.6428L220.478 83.4101C220.478 83.4101 221.177 86.7078 216.29 87.3442L211.15 88.6125L205.743 84.6428Z" fill="white" stroke="#263238" stroke-width="0.445034" stroke-linecap="round" stroke-linejoin="round"/>
<path d="M90.8755 214.998V205.487C90.8755 201.794 93.8706 198.799 97.5643 198.799H136.745C140.332 198.799 143.243 201.709 143.243 205.296V216.88H139.665V204.824H95.397V216.315L90.8755 214.998Z" fill="white" stroke="#263238" stroke-width="0.445034" stroke-miterlimit="10"/>
<path d="M92.0995 222.719C94.545 222.719 96.5276 220.737 96.5276 218.291C96.5276 215.845 94.545 213.863 92.0995 213.863C89.6539 213.863 87.6714 215.845 87.6714 218.291C87.6714 220.737 89.6539 222.719 92.0995 222.719Z" fill="white" stroke="#263238" stroke-width="0.445034" stroke-miterlimit="10"/>
<path d="M114.324 222.345C116.77 222.345 118.752 220.363 118.752 217.917C118.752 215.472 116.77 213.489 114.324 213.489C111.879 213.489 109.896 215.472 109.896 217.917C109.896 220.363 111.879 222.345 114.324 222.345Z" fill="white" stroke="#263238" stroke-width="0.445034" stroke-miterlimit="10"/>
<path d="M143.336 223.476C145.782 223.476 147.764 221.493 147.764 219.048C147.764 216.602 145.782 214.619 143.336 214.619C140.89 214.619 138.908 216.602 138.908 219.048C138.908 221.493 140.89 223.476 143.336 223.476Z" fill="white" stroke="#263238" stroke-width="0.445034" stroke-miterlimit="10"/>
<path d="M114.596 214.277L114.222 229.119L148.89 238.482C149.949 238.767 150.679 237.445 149.874 236.702L134.444 222.452C133.799 221.856 133.447 221.006 133.487 220.129L133.679 215.527L114.6 214.281L114.596 214.277Z" fill="white" stroke="#263238" stroke-width="0.445034" stroke-linecap="round" stroke-linejoin="round"/>
<path d="M130.31 223.378L133.799 221.882" stroke="#263238" stroke-width="0.445034" stroke-miterlimit="10"/>
<path d="M161.235 198.687L160.862 213.529L195.53 222.893C196.589 223.177 197.319 221.856 196.513 221.112L181.084 206.863C180.439 206.266 180.087 205.416 180.127 204.539L180.318 199.938L161.24 198.692L161.235 198.687Z" fill="white" stroke="#263238" stroke-width="0.445034" stroke-linecap="round" stroke-linejoin="round"/>
<path d="M176.949 207.788L180.443 206.293" stroke="#263238" stroke-width="0.445034" stroke-miterlimit="10"/>
<path d="M147.849 143.948H163.425V155.172C163.425 159.742 159.718 163.449 155.147 163.449H147.853V143.948H147.849Z" fill="white" stroke="#263238" stroke-width="0.445034" stroke-miterlimit="10"/>
<path d="M104.916 156.859V180.85H126.385V146.756L104.778 154.753L104.916 156.859Z" fill="white" stroke="#263238" stroke-width="0.445034" stroke-miterlimit="10"/>
<path d="M110.853 214.731L142.117 219.72L157.577 148.389L133.634 138.746L113.683 156.204L121.329 162.021L110.853 214.731Z" fill="#EB7B13" stroke="#263238" stroke-width="0.445034" stroke-miterlimit="10"/>
<path d="M167.72 122.782L184.493 129.404C190.118 131.625 193.687 137.206 193.345 143.245C192.468 158.861 190.229 188.456 185.343 202.759C185.343 202.759 165.557 201.927 155.245 198.936L163.06 147.059L149.758 131.095L167.715 122.782H167.72Z" fill="#EB7B13" stroke="#263238" stroke-width="0.445034" stroke-miterlimit="10"/>
<path d="M82.5267 55.8981H147.951V124.1H73.7952V64.6296C73.7952 59.8099 77.707 55.8981 82.5267 55.8981Z" fill="#263238" stroke="#263238" stroke-width="0.445034" stroke-linecap="round" stroke-linejoin="round"/>
<path d="M143.029 46.6903C142.504 53.0143 137.235 104.509 137.235 104.509L135.21 102.315C132.793 65.6354 124.916 42.2444 124.671 41.5235V41.5057H126.865L141.013 45.5466L143.033 46.6948L143.029 46.6903Z" fill="#EB7B13" stroke="#263238" stroke-width="0.445034" stroke-miterlimit="10"/>
<path d="M137.542 138.777C115.343 149.751 113.973 165.092 113.973 165.092C95.5172 156.36 83.6704 132.542 83.6704 132.542C85.5663 121.523 98.1741 88.7728 100.871 81.8391C101.187 81.0292 101.267 80.148 101.085 79.298C98.7838 68.5994 102.251 56.4677 102.251 56.4677C107.987 39.7612 124.662 42.2044 124.662 42.2044V42.2222C124.912 42.9432 132.793 66.3342 135.21 103.014L137.542 138.777Z" fill="white" stroke="#263238" stroke-width="0.445034" stroke-linecap="round" stroke-linejoin="round"/>
<path d="M150.216 89.1422C148.36 92.8804 142.544 105.43 145.121 111.073C145.521 111.955 146.26 112.64 147.15 113.018L167.261 120.277C168.521 120.731 168.841 122.368 167.844 123.263L166.148 124.785C163.883 126.819 161.36 128.55 158.65 129.934L147.275 135.746L138.628 115.128L137.235 104.505C137.235 104.505 142.508 53.0143 143.029 46.6859C143.029 46.6859 151.885 47.2867 162.232 61.5011L176.576 84.447L200.016 87.9406C200.016 87.9406 196.651 97.4198 201.262 102.159C201.262 102.159 177.07 107.148 162.108 96.5475L151.716 88.7772C151.213 88.3989 150.492 88.5681 150.212 89.1333L150.216 89.1422Z" fill="white" stroke="#263238" stroke-width="0.445034" stroke-linecap="round" stroke-linejoin="round"/>
<path d="M154.088 76.0314L150.216 89.1377" stroke="#263238" stroke-width="0.445034" stroke-linecap="round" stroke-linejoin="round"/>
<path d="M176.58 84.4559C176.58 84.4559 175.018 85.5552 175.138 87.6691" stroke="#263238" stroke-width="0.445034" stroke-linecap="round" stroke-linejoin="round"/>
<path d="M153.385 54.8656L152.326 65.8001L147.978 65.0969L150.679 70.2682L143.038 88.6081" stroke="#263238" stroke-width="0.445034" stroke-linecap="round" stroke-linejoin="round"/>
<path d="M116.937 45.2262C116.937 45.5778 119.643 55.6889 119.643 55.6889H127.168L122.228 59.8055L131.516 84.3803" stroke="#263238" stroke-width="0.445034" stroke-linecap="round" stroke-linejoin="round"/>
<path d="M100.871 81.8391C100.871 81.8391 100.947 99.6627 114.703 109.307L127.635 121.3" stroke="#263238" stroke-width="0.445034" stroke-linecap="round" stroke-linejoin="round"/>
<path d="M145.272 115.065C145.272 115.065 135.864 111.656 129.166 122.471L131.988 126L145.272 115.065Z" fill="#263238" stroke="#263238" stroke-width="0.445034" stroke-linecap="round" stroke-linejoin="round"/>
<path d="M117.76 56.748L125.165 90.7264L135.205 102.315L137.043 104.291C137.746 105.048 138.405 105.84 139.024 106.668L145.272 115.065C145.272 115.065 135.308 112.288 129.166 122.471" fill="white"/>
<path d="M117.76 56.748L125.165 90.7264L135.205 102.315L137.043 104.291C137.746 105.048 138.405 105.84 139.024 106.668L145.272 115.065C145.272 115.065 135.308 112.288 129.166 122.471" stroke="#263238" stroke-width="0.445034" stroke-linecap="round" stroke-linejoin="round"/>
<path d="M118.699 88.6081C118.699 88.6081 122.695 88.3722 125.165 90.7264C125.165 90.7264 122.108 91.078 120.461 92.7246" stroke="#263238" stroke-width="0.445034" stroke-linecap="round" stroke-linejoin="round"/>
<path d="M160.879 126.427C160.879 126.427 133.955 124.901 123.02 132.658C123.02 132.658 138.659 147.473 139.949 156.761C139.949 156.761 153.354 145.826 168.049 147.824L160.875 126.427H160.879Z" fill="#4DB4D7" stroke="#263238" stroke-width="0.445034" stroke-linecap="round" stroke-linejoin="round"/>
<path d="M129.709 121.763L131.979 124.972C132.282 125.404 132.5 125.889 132.615 126.405C133.189 129.004 135.308 137.406 138.69 137.406C138.69 137.406 146.919 138.701 150.799 134.936C150.799 134.936 156.327 136.107 153.029 132.382C152.615 131.914 152.224 131.429 151.885 130.904L148.681 126L152.348 125.831C153.074 125.795 153.461 124.981 153.042 124.389C152.13 123.098 150.065 121.211 145.504 120.125C145.504 120.125 141.035 119.418 140.448 114.954C140.448 114.954 134.026 114.856 129.705 121.768L129.709 121.763Z" fill="white" stroke="#263238" stroke-width="0.445034" stroke-linecap="round" stroke-linejoin="round"/>
<path d="M147.768 152.711L137.457 214.232" stroke="#263238" stroke-width="0.445034" stroke-linecap="round" stroke-linejoin="round"/>
<path d="M200.02 87.945L203.705 85.119C204.284 84.674 205.027 84.5004 205.743 84.6384L214.386 86.3206C214.386 86.3206 214.324 90.1924 208.614 89.3023L214.515 95.8354C214.515 95.8354 215.659 100.468 210.71 101.292L201.271 102.155C201.271 102.155 196.633 98.3143 200.025 87.9361L200.02 87.945Z" fill="white" stroke="#263238" stroke-width="0.445034" stroke-linecap="round" stroke-linejoin="round"/>
<path d="M208.614 89.3068C208.614 89.3068 206.776 94.2555 201.253 95.0166" stroke="#263238" stroke-width="0.445034" stroke-linecap="round" stroke-linejoin="round"/>
<path d="M207.724 95.9067C207.724 95.9067 210.198 99.2711 214.577 98.3188" stroke="#263238" stroke-width="0.445034" stroke-linecap="round" stroke-linejoin="round"/>
<path d="M251.898 40.6913C251.898 40.6913 242.815 44.0424 238.671 52.1554L230.594 73.5214C229.998 75.1013 230.825 76.8592 232.423 77.3977L243.785 81.2561C243.785 81.2561 243.077 87.1662 246.255 85.7554C246.255 85.7554 263.055 69.2002 268.52 68.9331C268.52 68.9331 272.489 69.4627 272.841 74.5762C272.841 74.5762 272.529 86.2806 279.939 86.5476L299.694 86.0758C301.025 86.0447 302.022 84.852 301.822 83.5347C300.593 75.4796 295.756 50.1928 282.707 43.3036C282.707 43.3036 275.6 38.1902 266.993 38.6886L260.758 40.3085L253.028 39.5609L251.902 40.6913H251.898Z" fill="#4DB4D7" stroke="#263238" stroke-width="0.445034" stroke-linecap="round" stroke-linejoin="round"/>
<path d="M243.785 81.2517L243.006 61.6257" stroke="#263238" stroke-width="0.445034" stroke-linecap="round" stroke-linejoin="round"/>
<path d="M262.334 63.4058C262.334 63.4058 251.577 72.3821 247.376 78.1231" stroke="#263238" stroke-width="0.445034" stroke-linecap="round" stroke-linejoin="round"/>
<path d="M259.632 99.7918V103.784" stroke="#263238" stroke-width="0.445034" stroke-linecap="round" stroke-linejoin="round"/>
<path d="M236.664 236.23L268.297 220.627C269.499 220.036 270.135 218.692 269.837 217.383L268.017 209.493L264.123 210.583L246.531 219.301C246.531 219.301 236.188 229.644 235.592 235.483C235.534 236.066 236.139 236.488 236.664 236.23Z" fill="#4DB4D7" stroke="#263238" stroke-width="0.445034" stroke-linecap="round" stroke-linejoin="round"/>
<path d="M204.51 234.165L238.306 222.706C239.815 222.194 240.727 220.663 240.46 219.092L238.987 210.458L235.018 211.206L216.736 218.362C216.736 218.362 204.613 227.561 203.509 233.324C203.398 233.903 203.968 234.375 204.515 234.161L204.51 234.165Z" fill="#4DB4D7" stroke="#263238" stroke-width="0.445034" stroke-linecap="round" stroke-linejoin="round"/>
<path d="M140.92 42.1198L140.986 48.6707C141.004 50.4331 140.39 52.1821 139.144 53.4282C137.502 55.0748 134.791 55.8403 131.075 50.4687L126.856 41.5057L132.833 33.4194L140.92 42.1198Z" fill="white" stroke="#263238" stroke-width="0.445034" stroke-linecap="round" stroke-linejoin="round"/>
<path d="M79.2423 56.748C79.2423 56.748 75.7354 58.9688 75.593 64.7943V108.919H113.968C120.67 108.919 126.104 114.291 126.104 120.922V146.939C126.104 152.457 121.583 156.93 116.002 156.93H104.916V163.036H84.9921C73.5236 163.036 64.2268 153.841 64.2268 142.502V72.0661C64.2268 64.1 70.3861 57.3221 78.4234 56.7926C78.6904 56.7748 78.9619 56.7614 79.2423 56.7525V56.748Z" fill="white" stroke="#263238" stroke-width="0.445034" stroke-miterlimit="10"/>
<path d="M150.799 134.936C150.799 134.936 147.769 130.597 145.276 127.104L150.799 134.936Z" fill="#E6E7E8"/>
<path d="M150.799 134.936C150.799 134.936 147.769 130.597 145.276 127.104" stroke="#263238" stroke-width="0.445034" stroke-miterlimit="10"/>
<path d="M146.024 137.081L141.035 129.351" stroke="#263238" stroke-width="0.445034" stroke-miterlimit="10"/>
<path d="M140.537 137.58L137.043 130.348" stroke="#263238" stroke-width="0.445034" stroke-miterlimit="10"/>
<path d="M147.665 11.8175L147.661 11.8168C140.995 10.7563 134.732 15.3 133.672 21.9654L132.501 29.3228C131.441 35.9882 135.985 42.2513 142.65 43.3118L142.654 43.3125C149.32 44.3729 155.583 39.8292 156.643 33.1638L157.814 25.8065C158.874 19.141 154.331 12.8779 147.665 11.8175Z" fill="white" stroke="#263238" stroke-width="0.445034" stroke-linecap="round" stroke-linejoin="round"/>
<path d="M126.772 30.1662C126.772 30.1662 126.158 25.7737 124.573 23.8378C124.573 23.8378 123.781 22.5205 124.133 20.5846C124.133 20.5846 123.456 20.3132 123.229 21.1988C123.212 21.2655 123.118 21.2655 123.114 21.1988C123.002 20.0551 122.833 16.8241 123.959 13.028C123.959 13.028 127.123 0.638218 140.741 5.91187C140.741 5.91187 145.664 0.816237 153.572 6.96661C153.572 6.96661 163.678 7.40718 161.391 16.5437C161.391 16.5437 159.722 22.169 162.619 25.5957C162.619 25.5957 155.414 27.091 149.175 21.2878C149.175 21.2878 149.615 24.7146 151.636 26.2099C151.636 26.2099 145.485 25.0661 143.55 16.9843C143.55 16.9843 139.331 26.4769 135.552 21.3768C135.552 21.3768 134.498 22.9567 133.002 27.4382L126.763 30.1618L126.772 30.1662Z" fill="white" stroke="#263238" stroke-width="0.445034" stroke-linecap="round" stroke-linejoin="round"/>
<path d="M130.595 34.4742C132.755 34.4742 134.507 32.2307 134.507 29.4631C134.507 26.6956 132.755 24.452 130.595 24.452C128.434 24.452 126.683 26.6956 126.683 29.4631C126.683 32.2307 128.434 34.4742 130.595 34.4742Z" fill="white" stroke="#263238" stroke-width="0.445034" stroke-linecap="round" stroke-linejoin="round"/>
<path d="M131.294 30.8026C131.795 30.8026 132.201 30.3961 132.201 29.8947C132.201 29.3933 131.795 28.9869 131.294 28.9869C130.792 28.9869 130.386 29.3933 130.386 29.8947C130.386 30.3961 130.792 30.8026 131.294 30.8026Z" fill="#263238" stroke="#263238" stroke-width="0.445034" stroke-linecap="round" stroke-linejoin="round"/>
<path d="M131.293 29.8948C131.293 29.8948 131.698 40.7536 135.913 46.0718C138.276 49.0535 142.588 49.4273 145.508 46.9841C146.718 45.9694 148.027 44.5186 148.783 42.5916" stroke="#263238" stroke-width="0.445034" stroke-linecap="round" stroke-linejoin="round"/>
<path d="M140.234 48.6796C140.234 48.6796 134.533 99.9831 164.978 105.426C164.978 105.426 184.8 109.182 209.544 92.3419" stroke="#263238" stroke-width="0.445034" stroke-linecap="round" stroke-linejoin="round"/>
<path d="M214.144 96.1562C216.192 95.4855 217.155 92.8096 216.294 90.1794C215.432 87.5493 213.074 85.9609 211.025 86.6316C208.977 87.3024 208.014 89.9783 208.875 92.6084C209.736 95.2386 212.095 96.827 214.144 96.1562Z" fill="#4DB4D7" stroke="#263238" stroke-width="0.445034" stroke-linecap="round" stroke-linejoin="round"/>
<path d="M215.47 95.5837C217.518 94.913 218.481 92.2371 217.62 89.6069C216.759 86.9768 214.4 85.3884 212.351 86.0591C210.303 86.7299 209.34 89.4058 210.201 92.0359C211.063 94.6661 213.421 96.2545 215.47 95.5837Z" fill="white" stroke="#263238" stroke-width="0.445034" stroke-linecap="round" stroke-linejoin="round"/>
<path d="M274.861 75.039C273.566 74.5673 271.159 73.3835 270.985 71.0871C270.985 71.0871 268.155 69.9567 268.235 67.8517C268.235 67.8517 265 67.3666 265.244 64.376C265.244 64.376 261.849 62.2754 263.059 59.2803C263.059 59.2803 266.219 52.5915 275.137 57.3667C275.97 57.8117 276.677 58.4704 277.158 59.2848L293.139 86.2094L300.415 86.1292C300.415 86.1292 299.85 107.317 292.169 107.718C292.169 107.718 284.149 110.33 279.058 99.6227C277.598 96.5475 276.815 93.1964 276.615 89.8008L275.823 76.205C275.738 75.6709 275.373 75.2259 274.866 75.039H274.861Z" fill="white" stroke="#263238" stroke-width="0.445034" stroke-linecap="round" stroke-linejoin="round"/>
<path d="M270.015 60.8157C270.015 60.8157 265.084 60.1704 263.629 62.6759" stroke="#263238" stroke-width="0.445034" stroke-linecap="round" stroke-linejoin="round"/>
<path d="M265.244 64.376C265.244 64.376 268.64 62.6759 271.31 63.566" stroke="#263238" stroke-width="0.445034" stroke-linecap="round" stroke-linejoin="round"/>
<path d="M268.235 67.8517C268.235 67.8517 269.53 67.1218 271.63 67.1218" stroke="#263238" stroke-width="0.445034" stroke-linecap="round" stroke-linejoin="round"/>
<path d="M293.139 86.2094L297.425 97.126" stroke="#263238" stroke-width="0.445034" stroke-linecap="round" stroke-linejoin="round"/>
<path d="M263.166 168.007H301.408C313.393 168.007 323.108 158.292 323.108 146.307V74.8921C323.108 67.8651 317.411 61.0071 310.389 61.0071V112.885H271.604C265.752 112.885 261.003 117.629 261.003 123.485V155.368L263.166 168.007Z" fill="white" stroke="#263238" stroke-width="0.445034" stroke-miterlimit="10"/>
<path d="M247.154 214.633L246.531 219.301C246.531 219.301 257.741 221.015 264.123 210.583L247.154 214.633Z" fill="white" stroke="#263238" stroke-width="0.445034" stroke-linecap="round" stroke-linejoin="round"/>
<path d="M220.162 212.715C219.953 213.422 219.637 214.259 219.166 215.145C218.387 216.6 217.466 217.655 216.731 218.367C218.774 218.625 221.511 218.62 224.671 218.077C229.094 217.316 234.096 215.581 237.728 210.663L220.162 212.719V212.715Z" fill="white" stroke="#263238" stroke-width="0.445034" stroke-linecap="round" stroke-linejoin="round"/>
<path d="M255.6 39.5431L255.916 45.3241C256.01 47.0108 257.234 48.4394 258.898 48.742C261.283 49.1781 264.737 48.693 267.518 43.811C268.003 42.961 268.084 41.9374 267.768 41.0073C267.282 39.5743 266.668 36.9085 266.891 32.9299L263.099 29.2272L255.605 39.5431H255.6Z" fill="white" stroke="#263238" stroke-width="0.445034" stroke-linecap="round" stroke-linejoin="round"/>
<path d="M263.398 18.5782C261.954 12.3782 255.758 8.52272 249.558 9.96663C243.358 11.4105 239.502 17.6071 240.946 23.807L242.88 32.1116C244.324 38.3116 250.521 42.1671 256.721 40.7232C262.921 39.2793 266.776 33.0827 265.332 26.8828L263.398 18.5782Z" fill="white" stroke="#263238" stroke-width="0.445034" stroke-linecap="round" stroke-linejoin="round"/>
<path d="M241.048 24.7279C241.048 24.7279 236.375 22.525 238.048 19.3475C238.048 19.3475 234.875 4.97287 251.453 3.82913C251.453 3.82913 250.572 0.829608 256.744 1.00762C256.744 1.00762 260.358 1.00762 260.536 4.26971C260.536 4.26971 271.47 4.0917 272.792 15.7338C272.792 15.7338 273.144 22.347 269.441 25.9607L265.209 26.1387L260.625 18.8179C260.625 18.8179 259.744 21.9064 257.625 22.7876L257.714 19.3475C257.714 19.3475 254.363 21.1988 250.309 21.3768C250.309 21.3768 251.631 19.3475 251.368 17.4071C251.368 17.4071 244.577 21.3768 240.612 21.8174L241.052 24.7279H241.048Z" fill="white" stroke="#263238" stroke-width="0.445034" stroke-linecap="round" stroke-linejoin="round"/>
<path d="M267.064 33.6375C268.964 33.6375 270.505 31.4458 270.505 28.7421C270.505 26.0385 268.964 23.8467 267.064 23.8467C265.164 23.8467 263.624 26.0385 263.624 28.7421C263.624 31.4458 265.164 33.6375 267.064 33.6375Z" fill="white" stroke="#263238" stroke-width="0.445034" stroke-linecap="round" stroke-linejoin="round"/>
<path d="M145.417 30.5398C145.612 29.9701 145.478 29.4082 145.117 29.2848C144.757 29.1614 144.307 29.5232 144.111 30.0929C143.916 30.6626 144.05 31.2245 144.411 31.3479C144.771 31.4713 145.222 31.1095 145.417 30.5398Z" fill="#263238" stroke="#263238" stroke-width="0.445034" stroke-miterlimit="10"/>
<path d="M152.827 31.3659C153.022 30.7962 152.888 30.2343 152.527 30.1109C152.167 29.9875 151.716 30.3493 151.521 30.919C151.326 31.4887 151.46 32.0506 151.821 32.174C152.181 32.2974 152.632 31.9356 152.827 31.3659Z" fill="#263238" stroke="#263238" stroke-width="0.445034" stroke-miterlimit="10"/>
<path d="M151.574 27.4114C151.574 27.4114 153.447 26.2944 154.929 28.0879" stroke="#263238" stroke-width="0.445034" stroke-linecap="round" stroke-linejoin="round"/>
<path d="M147.631 26.6727C147.631 26.6727 145.179 24.5454 142.633 26.2499" stroke="#263238" stroke-width="0.445034" stroke-linecap="round" stroke-linejoin="round"/>
<path d="M150.038 29.5253L149.357 32.4626C149.335 32.5516 149.34 32.6406 149.357 32.7296L149.749 34.3183C149.802 34.532 149.727 34.7545 149.558 34.8969L148.325 35.9116" stroke="#263238" stroke-width="0.445034" stroke-linecap="round" stroke-linejoin="round"/>
<path d="M149.05 38.2569C148.174 38.2168 145.005 38.021 143.002 37.2867C142.913 37.2556 142.824 37.3268 142.842 37.4202C143.051 38.6485 144.369 44.741 149.139 38.4572C149.197 38.3771 149.148 38.2613 149.05 38.2569Z" fill="white" stroke="#263238" stroke-width="0.445034" stroke-miterlimit="10"/>
<path d="M140.746 5.91187C140.746 5.91187 139.731 7.95903 140.038 9.55225L140.746 5.91187Z" fill="white"/>
<path d="M140.746 5.91187C140.746 5.91187 139.731 7.95903 140.038 9.55225" stroke="#263238" stroke-width="0.445034" stroke-linecap="round" stroke-linejoin="round"/>
<path d="M133.843 5.91187C133.843 5.91187 125.904 8.18599 125.165 18.8757L133.843 5.91187Z" fill="white"/>
<path d="M133.843 5.91187C133.843 5.91187 125.904 8.18599 125.165 18.8757" stroke="#263238" stroke-width="0.445034" stroke-linecap="round" stroke-linejoin="round"/>
<path d="M136.251 20.1263C136.251 20.1263 139.304 23.197 142.838 15.2354L136.251 20.1263Z" fill="white"/>
<path d="M136.251 20.1263C136.251 20.1263 139.304 23.197 142.838 15.2354" stroke="#263238" stroke-width="0.445034" stroke-linecap="round" stroke-linejoin="round"/>
<path d="M143.643 10.1219C143.643 10.1219 142.41 13.7445 143.559 16.9888L143.643 10.1219Z" fill="white"/>
<path d="M143.643 10.1219C143.643 10.1219 142.41 13.7445 143.559 16.9888" stroke="#263238" stroke-width="0.445034" stroke-linecap="round" stroke-linejoin="round"/>
<path d="M153.576 6.96661C153.576 6.96661 152.624 9.48105 156.376 13.5531L153.576 6.96661Z" fill="white"/>
<path d="M153.576 6.96661C153.576 6.96661 152.624 9.48105 156.376 13.5531" stroke="#263238" stroke-width="0.445034" stroke-linecap="round" stroke-linejoin="round"/>
<path d="M254.226 28.0646C254.586 27.9412 254.72 27.3793 254.525 26.8096C254.33 26.2399 253.88 25.8781 253.52 26.0015C253.159 26.1249 253.025 26.6868 253.22 27.2565C253.415 27.8262 253.865 28.188 254.226 28.0646Z" fill="#263238" stroke="#263238" stroke-width="0.445034" stroke-miterlimit="10"/>
<path d="M246.823 28.888C247.184 28.7646 247.318 28.2027 247.123 27.633C246.928 27.0633 246.477 26.7015 246.117 26.8249C245.757 26.9483 245.622 27.5102 245.818 28.0799C246.013 28.6496 246.463 29.0114 246.823 28.888Z" fill="#263238" stroke="#263238" stroke-width="0.445034" stroke-miterlimit="10"/>
<path d="M247.056 24.1583C247.056 24.1583 245.182 23.0412 243.7 24.8347" stroke="#263238" stroke-width="0.445034" stroke-linecap="round" stroke-linejoin="round"/>
<path d="M250.999 23.4195C250.999 23.4195 253.451 21.2922 255.997 22.9967" stroke="#263238" stroke-width="0.445034" stroke-linecap="round" stroke-linejoin="round"/>
<path d="M248.591 26.2722L249.272 29.2094C249.294 29.2984 249.29 29.3874 249.272 29.4764L248.88 31.0652C248.827 31.2788 248.903 31.5013 249.072 31.6437L250.304 32.6584" stroke="#263238" stroke-width="0.445034" stroke-linecap="round" stroke-linejoin="round"/>
<path d="M249.508 36.3611C249.508 36.3611 251.159 34.2472 254.684 35.1907" stroke="#263238" stroke-width="0.445034" stroke-linecap="round" stroke-linejoin="round"/>
<path d="M267.064 27.0554V30.7982" stroke="#263238" stroke-width="0.445034" stroke-linecap="round" stroke-linejoin="round"/>
<path d="M249.446 5.91187C249.446 5.91187 241.03 8.65327 240.821 15.2353L249.446 5.91187Z" fill="white"/>
<path d="M249.446 5.91187C249.446 5.91187 241.03 8.65327 240.821 15.2353" stroke="#263238" stroke-width="0.445034" stroke-linecap="round" stroke-linejoin="round"/>
<path d="M238.053 19.3519C238.053 19.3519 239.463 20.6246 243.006 17.051L238.053 19.3519Z" fill="white"/>
<path d="M238.053 19.3519C238.053 19.3519 239.463 20.6246 243.006 17.051" stroke="#263238" stroke-width="0.445034" stroke-linecap="round" stroke-linejoin="round"/>
<path d="M253.139 19.57C253.139 19.57 256.62 18.7422 258.15 16.9843L253.139 19.57Z" fill="white"/>
<path d="M253.139 19.57C253.139 19.57 256.62 18.7422 258.15 16.9843" stroke="#263238" stroke-width="0.445034" stroke-linecap="round" stroke-linejoin="round"/>
<path d="M57.013 160.432C59.7806 160.432 62.0241 154.55 62.0241 147.295C62.0241 140.039 59.7806 134.157 57.013 134.157C54.2455 134.157 52.002 140.039 52.002 147.295C52.002 154.55 54.2455 160.432 57.013 160.432Z" fill="#EB7B13" stroke="#263238" stroke-width="0.445034" stroke-miterlimit="10"/>
<path d="M41.4546 139.191C43.0211 144.126 46.0251 147.584 48.1746 146.881C50.3197 146.178 50.787 141.652 49.2205 136.721C47.6539 131.79 44.6455 128.327 42.5005 129.035C40.3598 129.743 39.8837 134.264 41.4546 139.191Z" fill="#EB7B13" stroke="#263238" stroke-width="0.445034" stroke-miterlimit="10"/>
<path d="M78.2011 168.91C83.3012 168.047 87.124 165.546 86.7502 163.325C86.3764 161.109 81.9394 160.009 76.8393 160.855C71.7392 161.705 67.8985 164.233 68.2902 166.453C68.6818 168.674 73.101 169.769 78.2011 168.906V168.91Z" fill="#EB7B13" stroke="#263238" stroke-width="0.445034" stroke-miterlimit="10"/>
<path d="M36.7329 156.783C40.9919 161.006 46.0252 162.84 47.9744 160.877C49.9237 158.915 48.0501 153.899 43.7867 149.676C39.5232 145.452 34.5033 143.619 32.5496 145.581C30.6003 147.544 32.4739 152.542 36.7284 156.783H36.7329Z" fill="#EB7B13" stroke="#263238" stroke-width="0.445034" stroke-miterlimit="10"/>
<path d="M66.0739 145.181C61.9573 151.153 60.7291 157.45 63.3325 159.244C65.936 161.037 71.3832 157.655 75.4997 151.678C79.6163 145.702 80.8446 139.413 78.2411 137.615C75.6332 135.817 70.1905 139.209 66.0739 145.181Z" fill="#EB7B13" stroke="#263238" stroke-width="0.445034" stroke-miterlimit="10"/>
<path d="M56.6616 159.778L56.2744 199.738" stroke="#263238" stroke-width="0.445034" stroke-linecap="round" stroke-linejoin="round"/>
<path d="M57.1242 142.413L56.6614 159.778" stroke="#263238" stroke-width="0.445034" stroke-miterlimit="10" stroke-linecap="round"/>
<path d="M57.0977 139.578L57.1244 140.904" stroke="#263238" stroke-width="0.445034" stroke-miterlimit="10" stroke-linecap="round"/>
<path d="M63.3549 158.394C60.4844 164.326 58.8066 170.766 58.4194 177.343V202.061" stroke="#263238" stroke-width="0.445034" stroke-linecap="round" stroke-linejoin="round"/>
<path d="M71.9616 145.23C68.5215 149.217 65.6288 153.645 63.3591 158.394" stroke="#263238" stroke-width="0.445034" stroke-miterlimit="10" stroke-linecap="round"/>
<path d="M74.6629 142.368C74.6629 142.368 74.1467 142.862 73.2922 143.752" stroke="#263238" stroke-width="0.445034" stroke-miterlimit="10" stroke-linecap="round"/>
<path d="M47.6584 160.236C51.1698 165.163 53.9067 170.597 55.7759 176.347" stroke="#263238" stroke-width="0.445034" stroke-miterlimit="10" stroke-linecap="round"/>
<path d="M41.8997 153.628C44.0225 155.648 45.9495 157.86 47.6584 160.236" stroke="#263238" stroke-width="0.445034" stroke-miterlimit="10" stroke-linecap="round"/>
<path d="M35.7493 148.937C37.3158 149.818 38.7844 150.859 40.1373 152.048" stroke="#263238" stroke-width="0.445034" stroke-miterlimit="10" stroke-linecap="round"/>
<path d="M47.8721 145.661C50.6446 154.393 54.374 167.299 56.1096 178.496" stroke="#263238" stroke-width="0.445034" stroke-miterlimit="10" stroke-linecap="round"/>
<path d="M46.1765 140.49C46.6705 141.972 47.2446 143.712 47.8632 145.67" stroke="#263238" stroke-width="0.445034" stroke-miterlimit="10" stroke-linecap="round"/>
<path d="M44.4497 135.47C44.4497 135.47 44.9437 136.81 45.7136 139.097" stroke="#263238" stroke-width="0.445034" stroke-miterlimit="10" stroke-linecap="round"/>
<path d="M68.5439 165.243C65.0904 166.56 60.3419 170.223 58.6953 175.025" stroke="#263238" stroke-width="0.445034" stroke-miterlimit="10" stroke-linecap="round"/>
<path d="M74.9523 163.943C72.7583 164.05 70.5954 164.491 68.5349 165.243" stroke="#263238" stroke-width="0.445034" stroke-miterlimit="10" stroke-linecap="round"/>
<path d="M79.1001 164.041C79.1001 164.041 78.4815 163.957 77.4668 163.912" stroke="#263238" stroke-width="0.445034" stroke-miterlimit="10" stroke-linecap="round"/>
<path d="M68.1967 188.118C72.8829 190.303 77.4534 190.423 78.4057 188.385C79.3581 186.347 76.3319 182.92 71.6501 180.735C66.9639 178.55 62.3934 178.429 61.4411 180.468C60.4887 182.506 63.5149 185.933 68.1967 188.118Z" fill="#EB7B13" stroke="#263238" stroke-width="0.445034" stroke-miterlimit="10"/>
<path d="M68.3481 182.185C66.4879 181.033 64.463 180.165 62.3402 179.618C61.3433 179.008 60.0883 179.035 59.1181 179.675C58.4862 180.094 58.6998 183.262 58.6998 183.262V199.724" stroke="#263238" stroke-width="0.445034" stroke-linecap="round" stroke-linejoin="round"/>
<path d="M71.7037 184.629C71.7037 184.629 71.2453 184.206 70.4309 183.592" stroke="#263238" stroke-width="0.445034" stroke-miterlimit="10" stroke-linecap="round"/>
<path d="M34.5743 168.91C29.4787 168.047 25.6514 165.546 26.0252 163.325C26.399 161.109 30.836 160.009 35.9361 160.855C41.0362 161.705 44.859 164.215 44.4852 166.44C44.1114 168.661 39.6744 169.773 34.5743 168.91Z" fill="#EB7B13" stroke="#263238" stroke-width="0.445034" stroke-miterlimit="10"/>
<path d="M44.1204 165.203C44.739 165.434 45.3487 165.701 45.9361 166.004C50.1372 168.216 52.754 172.586 52.7229 177.335V199.11" stroke="#263238" stroke-width="0.445034" stroke-linecap="round" stroke-linejoin="round"/>
<path d="M37.2937 163.912C39.6257 163.983 41.931 164.42 44.125 165.203" stroke="#263238" stroke-width="0.445034" stroke-miterlimit="10" stroke-linecap="round"/>
<path d="M33.6755 164.041C33.6755 164.041 34.085 163.988 34.7792 163.943" stroke="#263238" stroke-width="0.445034" stroke-miterlimit="10" stroke-linecap="round"/>
<path d="M39.6922 183.823C35.2152 186.409 30.6669 186.916 29.5499 184.967C28.4284 183.018 31.1431 179.346 35.6246 176.765C40.1061 174.184 44.6499 173.672 45.7669 175.621C46.8884 177.57 44.1737 181.242 39.6922 183.823Z" fill="#EB7B13" stroke="#263238" stroke-width="0.445034" stroke-miterlimit="10"/>
<path d="M38.6064 178.247C40.4489 176.814 42.5049 175.679 44.699 174.887C44.699 174.887 50.2574 173.975 51.5258 177.562" stroke="#263238" stroke-width="0.445034" stroke-miterlimit="10" stroke-linecap="round"/>
<path d="M35.9006 180.65C35.9006 180.65 36.1766 180.347 36.6883 179.871" stroke="#263238" stroke-width="0.445034" stroke-miterlimit="10" stroke-linecap="round"/>
<path d="M50.6713 177.775C50.6713 177.775 57.2177 176.507 57.2177 180.939C57.2177 185.372 52.5983 188.968 50.6713 194.037C48.7443 199.106 45.1751 199.319 43.2659 194.25C41.3567 189.181 44.1204 179.889 50.6713 177.78V177.775Z" fill="#EB7B13" stroke="#263238" stroke-width="0.445034" stroke-miterlimit="10"/>
<path d="M55.1039 178.007C55.1039 178.007 49.403 180.33 47.6985 187.726" stroke="#263238" stroke-width="0.445034" stroke-linecap="round" stroke-linejoin="round"/>
<path d="M54.6812 187.704V199.738" stroke="#263238" stroke-width="0.445034" stroke-linecap="round" stroke-linejoin="round"/>
<path d="M44.2049 223.186C42.6384 218.198 41.8373 213.004 41.8373 207.775C41.8284 204.611 42.1489 201.451 42.7853 198.354H69.4428C70.0792 201.455 70.3996 204.611 70.3907 207.775C70.3907 213.004 69.5897 218.198 68.0231 223.186H44.2094H44.2049Z" fill="#263238" stroke="#263238" stroke-width="0.445034" stroke-miterlimit="10"/>
<path d="M70.1327 202.759C70.2084 203.48 70.2663 204.215 70.3108 204.962H41.9087C41.9532 204.219 42.011 203.48 42.0867 202.759H70.1327Z" fill="#7A7A7A"/>
<path d="M42.2291 214.014C42.1401 213.284 42.0644 212.532 42.0066 211.811H70.2529C70.195 212.55 70.1194 213.293 70.0304 214.014H42.2291Z" fill="#7A7A7A"/>
<path d="M66.9507 207.895C66.9284 208.531 67.4269 209.061 68.0588 209.083C68.6952 209.106 69.2248 208.607 69.247 207.975C69.2693 207.339 68.7709 206.809 68.1389 206.787C68.1256 206.787 68.1078 206.787 68.0944 206.787C67.4714 206.778 66.9596 207.276 66.9507 207.899V207.895Z" fill="#8C8C8C"/>
<path d="M61.2007 207.895C61.1784 208.531 61.6769 209.061 62.3088 209.083C62.9452 209.106 63.4748 208.607 63.497 207.975C63.5193 207.339 63.0209 206.809 62.3889 206.787C62.3756 206.787 62.3622 206.787 62.3489 206.787C61.7258 206.778 61.214 207.276 61.2007 207.899V207.895Z" fill="#8C8C8C"/>
<path d="M55.4509 207.895C55.4287 208.531 55.9271 209.061 56.559 209.083C57.1954 209.106 57.725 208.607 57.7473 207.975C57.7695 207.339 57.2711 206.809 56.6392 206.787C56.6258 206.787 56.6125 206.787 56.5991 206.787C55.9761 206.778 55.4598 207.272 55.4509 207.895Z" fill="#8C8C8C"/>
<path d="M49.7056 207.895C49.6833 208.531 50.1817 209.061 50.8137 209.083C51.4501 209.106 51.9797 208.607 52.0019 207.975C52.0242 207.339 51.5257 206.809 50.8938 206.787C50.8804 206.787 50.8671 206.787 50.8537 206.787C50.2307 206.778 49.7145 207.272 49.7056 207.895Z" fill="#8C8C8C"/>
<path d="M43.9558 207.895C43.9335 208.531 44.432 209.061 45.0639 209.083C45.7003 209.106 46.2299 208.607 46.2522 207.975C46.2744 207.339 45.776 206.809 45.144 206.787C45.1307 206.787 45.1173 206.787 45.104 206.787C44.4809 206.778 43.9691 207.276 43.9558 207.899V207.895Z" fill="#8C8C8C"/>
</svg>
