<svg width="390" height="844" viewBox="0 0 390 844" fill="none" xmlns="http://www.w3.org/2000/svg">
<g clip-path="url(#clip0_8_3179)">
<rect width="390" height="844" rx="30" fill="#202FBF"/>
<g opacity="0.5">
<path d="M560 636.5C560 862.108 375.765 1045 148.5 1045C-78.7652 1045 -263 862.108 -263 636.5C-263 410.892 -78.7652 228 148.5 228C375.765 228 560 410.892 560 636.5Z" fill="#021096"/>
<path d="M728 712.5C728 938.108 543.765 1121 316.5 1121C89.2348 1121 -95 938.108 -95 712.5C-95 486.892 89.2348 304 316.5 304C543.765 304 728 486.892 728 712.5Z" fill="#0818AC"/>
<path d="M885 712.5C885 938.108 700.765 1121 473.5 1121C246.235 1121 62 938.108 62 712.5C62 486.892 246.235 304 473.5 304C700.765 304 885 486.892 885 712.5Z" fill="#021096"/>
</g>
</g>
<defs>
<clipPath id="clip0_8_3179">
<rect width="390" height="844" rx="30" fill="white"/>
</clipPath>
</defs>
</svg>
