<svg width="37" height="36" viewBox="0 0 37 36" fill="none" xmlns="http://www.w3.org/2000/svg">
<g clip-path="url(#clip0_8_3491)">
<path d="M36.3144 17.8286C36.3144 7.98221 28.3322 0 18.4858 0C8.63943 0 0.657227 7.98221 0.657227 17.8286C0.657227 26.1895 6.41372 33.2054 14.1791 35.1323V23.277H10.5029V17.8286H14.1791V15.4809C14.1791 9.41277 16.9254 6.60014 22.883 6.60014C24.0127 6.60014 25.9617 6.82192 26.759 7.043V11.9815C26.3382 11.9373 25.6072 11.9152 24.6994 11.9152C21.7762 11.9152 20.6466 13.0227 20.6466 15.9017V17.8286H26.4701L25.4696 23.277H20.6466V35.5266C29.4746 34.4605 36.3151 26.944 36.3151 17.8286H36.3144Z" fill="#0866FF"/>
<path d="M25.4689 23.277L26.4695 17.8286H20.6459V15.9017C20.6459 13.0227 21.7756 11.9152 24.6987 11.9152C25.6066 11.9152 26.3375 11.9373 26.7583 11.9815V7.04302C25.961 6.82123 24.012 6.60016 22.8824 6.60016C16.9248 6.60016 14.1784 9.41279 14.1784 15.4809V17.8286H10.5022V23.277H14.1784V35.1323C15.5577 35.4746 17.0004 35.6572 18.4851 35.6572C19.2161 35.6572 19.9371 35.6122 20.6452 35.5267V23.277H25.4682H25.4689Z" fill="white"/>
</g>
<defs>
<clipPath id="clip0_8_3491">
<rect width="35.6571" height="35.6571" fill="white" transform="translate(0.657227)"/>
</clipPath>
</defs>
</svg>
