<svg width="36" height="36" viewBox="0 0 36 36" fill="none" xmlns="http://www.w3.org/2000/svg">
<g clip-path="url(#clip0_8_3492)">
<path d="M17.8281 14.587V21.4915H27.4231C27.0018 23.712 25.7374 25.5921 23.8411 26.8563L29.6273 31.3459C32.9985 28.2341 34.9435 23.6635 34.9435 18.2339C34.9435 16.9697 34.83 15.754 34.6193 14.5872L17.8281 14.587Z" fill="#4285F4"/>
<path d="M7.83665 21.222L6.53165 22.2209L1.91235 25.819C4.84596 31.6376 10.8586 35.6572 17.8279 35.6572C22.6415 35.6572 26.6772 34.0688 29.6271 31.3459L23.8409 26.8563C22.2525 27.9261 20.2266 28.5744 17.8279 28.5744C13.1925 28.5744 9.25412 25.4463 7.84394 21.2323L7.83665 21.222Z" fill="#34A853"/>
<path d="M1.91238 9.83813C0.696862 12.2368 0 14.9435 0 17.8285C0 20.7134 0.696862 23.4202 1.91238 25.8188C1.91238 25.8349 7.84453 21.2158 7.84453 21.2158C7.48797 20.1461 7.2772 19.0116 7.2772 17.8283C7.2772 16.645 7.48797 15.5105 7.84453 14.4408L1.91238 9.83813Z" fill="#FBBC05"/>
<path d="M17.8283 7.09901C20.454 7.09901 22.7878 8.00662 24.6517 9.75709L29.7571 4.6517C26.6614 1.76676 22.642 0 17.8283 0C10.859 0 4.84596 4.00332 1.91235 9.83814L7.84432 14.4412C9.25432 10.2271 13.1929 7.09901 17.8283 7.09901Z" fill="#EA4335"/>
</g>
<defs>
<clipPath id="clip0_8_3492">
<rect width="35.6571" height="35.6571" fill="white"/>
</clipPath>
</defs>
</svg>
